<svg aria-hidden="true" style="position:absolute;width:0;height:0;overflow:hidden" xmlns="http://www.w3.org/2000/svg">
  <defs>
    <symbol id="favicon" viewBox="0 0 32 32" fill="none" xmlns="http://www.w3.org/2000/svg">
      <circle cx="16" cy="16" r="16" fill="#242424"/>
      <path d="M10.6 11.7143H9.4C9.0675 11.7143 8.8 12.0009 8.8 12.3571V15.1429H8.2C8.09 15.1429 8 15.2393 8 15.3571V16.6429C8 16.7607 8.09 16.8571 8.2 16.8571H8.8V19.6429C8.8 19.9991 9.0675 20.2857 9.4 20.2857H10.6C10.9325 20.2857 11.2 19.9991 11.2 19.6429V12.3571C11.2 12.0009 10.9325 11.7143 10.6 11.7143ZM23.8 15.1429H23.2V12.3571C23.2 12.0009 22.9325 11.7143 22.6 11.7143H21.4C21.0675 11.7143 20.8 12.0009 20.8 12.3571V19.6429C20.8 19.9991 21.0675 20.2857 21.4 20.2857H22.6C22.9325 20.2857 23.2 19.9991 23.2 19.6429V16.8571H23.8C23.91 16.8571 24 16.7607 24 16.6429V15.3571C24 15.2393 23.91 15.1429 23.8 15.1429ZM19.4 10H18.2C17.8675 10 17.6 10.2866 17.6 10.6429V15.1429H14.4V10.6429C14.4 10.2866 14.1325 10 13.8 10H12.6C12.2675 10 12 10.2866 12 10.6429V21.3571C12 21.7134 12.2675 22 12.6 22H13.8C14.1325 22 14.4 21.7134 14.4 21.3571V16.8571H17.6V21.3571C17.6 21.7134 17.8675 22 18.2 22H19.4C19.7325 22 20 21.7134 20 21.3571V10.6429C20 10.2866 19.7325 10 19.4 10Z" fill="#F4F4F4"/>
    </symbol>
    <symbol id="logo" viewBox="0 0 60 60" fill="none" xmlns="http://www.w3.org/2000/svg">
      <path d="M28.4395 25.972L30 25.6803L31.5605 25.972L32.9102 26.8077L33.8669 28.0745L34.3013 29.6014L34.1548 31.1822L33.4472 32.6032L32.274 33.6727L30.7938 34.2462H29.2062L27.726 33.6727L26.5528 32.6032L25.8452 31.1822L25.6987 29.6014L26.1331 28.0745L27.0898 26.8077L28.4395 25.972Z" stroke="currentColor" stroke-width="4"/>
    </symbol>
    <symbol id="facebook" viewBox="0 0 24 24" xmlns="http://www.w3.org/2000/svg">
      <path d="M22.675 0h-21.35C.6 0 0 .6 0 1.325v21.35C0 23.4.6 24 1.325 24h21.35C23.4 24 24 23.4 24 22.675v-21.35C24 .6 23.4 0 22.675 0zm-2.65 12.5h-3.15v9.5h-4.5v-9.5h-2.5v-4h2.5V7.5c0-2.5 1.5-3.5 3.5-3.5 1 0 2 .1 2 .1v2.5h-1.5c-1.5 0-2 .5-2 1.5v2h4l-.5 4z" fill="currentColor"/>
    </symbol>
    <symbol id="instagram" viewBox="0 0 44 44" fill="none" xmlns="http://www.w3.org/2000/svg">
      <rect x="0.5" y="0.5" width="43" height="43" rx="9.5" stroke="#F4F4F4" stroke-opacity="0.1"/>
      <g opacity="0.8">
        <path d="M33.1277 17.4115C33.114 16.4715 32.9398 15.5388 32.6065 14.6596C32.0231 13.1583 30.8352 11.9711 29.3313 11.3899C28.4618 11.0633 27.5426 10.8882 26.6122 10.8683C25.4155 10.815 25.0361 10.8 21.9986 10.8C18.961 10.8 18.5716 10.8 17.3837 10.8683C16.4545 10.8882 15.5353 11.0633 14.6658 11.3899C13.162 11.9711 11.9728 13.1583 11.3907 14.6596C11.0635 15.5277 10.8869 16.4454 10.8695 17.373C10.816 18.5689 10.7998 18.9477 10.7998 21.9802C10.7998 25.0127 10.7998 25.4002 10.8695 26.5873C10.8881 27.5162 11.0635 28.4327 11.3907 29.3032C11.974 30.8033 13.162 31.9905 14.6671 32.5717C15.5328 32.9095 16.452 33.1007 17.385 33.1305C18.5828 33.1839 18.9622 33.2001 21.9998 33.2001C25.0374 33.2001 25.4267 33.2001 26.6146 33.1305C27.5438 33.1119 28.4631 32.9368 29.3338 32.6102C30.8377 32.0278 32.0256 30.8406 32.609 29.3405C32.9361 28.4712 33.1115 27.5547 33.1301 26.6246C33.1836 25.43 33.1998 25.0512 33.1998 22.0174C33.1973 18.9849 33.1973 18.5999 33.1277 17.4115ZM21.9911 27.7149C18.8142 27.7149 16.2406 25.1456 16.2406 21.974C16.2406 18.8024 18.8142 16.233 21.9911 16.233C25.1655 16.233 27.7416 18.8024 27.7416 21.974C27.7416 25.1456 25.1655 27.7149 21.9911 27 .7149ZM27.9705 17.3594C27.2279 17.3594 26.6296 16.7608 26.6296 16.0207C26.6296 15.2805 27.2279 14.682 27.9705 14.682C28.7106 14.682 29.3102 15.2805 29.3102 16.0207C29.3102 16.7608 28.7106 17.3594 27.9705 17.3594Z" fill="currentColor"/>
        <path d="M21.9928 25.4789C23.9277 25.4789 25.4963 23.9104 25.4963 21.9754C25.4963 20.0405 23.9277 18.4719 21.9928 18.4719C20.0578 18.4719 18.4893 20.0405 18.4893 21.9754C18.4893 23.9104 20.0578 25.4789 21.9928 25.4789Z" fill="currentColor"/>
      </g>
    </symbol>
    <symbol id="youtube" viewBox="0 0 44 44" fill="none" xmlns="http://www.w3.org/2000/svg">
      <rect x="0.5" y="0.5" width="43" height="43" rx="9.5" stroke="#F4F4F4" stroke-opacity="0.1"/>
      <g opacity="0.8">
        <path fill-rule="evenodd" clip-rule="evenodd" d="M29.2104 13.2499C28.0203 13.1799 25.5703 13.1099 21.8604 13.1099H21.3703C17.8003 13.1099 15.4204 13.1799 14.2304 13.3199C12.6204 13.4599 11.5003 13.8799 10.8703 14.4399C10.3103 14.9299 9.89036 15.8399 9.75036 17.0299C9.68036 17.7999 9.61035 19.4099 9.61035 21.8599V22.2099C9.61035 24.5199 9.68034 26.1299 9.82034 26.8999C10.0303 28.0199 10.3804 28.8599 11.0804 29.3499C11.7804 29.9099 12.9704 30.2599 14.6504 30.3999C15.8404 30.4699 18.2904 30.5399 22.0004 30.5399H22.4904C26.0604 30.5399 28.4404 30.4699 29.6304 30.3299C31.2404 30.1899 32.3604 29.7699 32.9904 29.2099C33.5504 28.7199 33.9703 27.8099 34.1103 26.6199C34.1803 25.8499 34.2504 24.2399 34.2504 21.7899V21.4399C34.2504 19.1299 34.1804 17.5199 34.0404 16.7499C33.8304 15.6299 33.4804 14.7899 32.7804 14.2999C32.0804 13.7399 30.8904 13.3899 29.2104 13.2499ZM26.4804 21.8599L18.7804 26.4799V17.2399L26.4804 21.8599Z" fill="currentColor"/>
      </g>
    </symbol>
    <symbol id="man" viewBox="0 0 32 32" fill="none" xmlns="http://www.w3.org/2000/svg">
      <circle cx="16" cy="16" r="16" fill="currentColor" fill-opacity="0.2"/>
      <path d="M24.7293 11.907C24.4611 11.594 23.9834 11.5528 23.6631 11.8138L21.5637 13.5369L20.5983 11.1998C20.564 11.1121 20.5119 11.0384 20.452 10.9734C20.2547 10.5446 19.9122 10.1763 19.44 9.96297C19.235 9.872 19.0233 9.82326 18.8116 9.79944C18.765 9.77561 18.7229 9.7442 18.6697 9.72796L14.9754 8.72184C14.7681 8.6666 14.5597 8.70234 14.3891 8.79981C14.1862 8.86696 14.0122 9.011 13.9291 9.22002L12.538 12.7149C12.3873 13.0951 12.5801 13.5239 12.9703 13.6734C13.3582 13.8207 13.7983 13.6311 13.9501 13.2499L15.125 10.2987L16.8076 10.7557C16.7666 10.8207 16.7222 10.8814 16.689 10.9507L14.532 15.5188C14.501 15.586 14.4844 15.6542 14.4622 15.7235L11.8408 20.0177L7.45378 21.4516C6.95721 21.8144 6.85192 22.4978 7.2188 22.983C7.5879 23.4692 8.28951 23.5721 8.78497 23.2137L13.274 21.7029C13.4114 21.6054 13.5112 21.4776 13.5866 21.34C13.6431 21.2816 13.7074 21.235 13.7506 21.1624L15.3135 18.6022L18.0878 20.9123L15.1195 24.1808C14.7105 24.6313 14.7515 25.3255 15.2148 25.7241C15.677 26.1259 16.3853 26.0836 16.7965 25.6309L20.5008 21.5534C20.6161 21.4278 20.6848 21.2826 20.7313 21.131C20.759 21.0487 20.759 20.9632 20.7657 20.8776C20.7657 20.8343 20.7823 20.7953 20.779 20.7552C20.769 20.4563 20.6449 20.1661 20.3944 19.9592L17.8417 17.8322C18.0257 17.661 18.182 17.4574 18.2951 17.2181L19.9488 13.7189L20.4786 15.0975C20.5008 15.2199 20.5429 15.3401 20.6316 15.4409C20.7114 15.534 20.8134 15.5957 20.922 15.6391C20.933 1 15.6445 20.9464 15.6456 20.9597 15.6488C21.0284 15.6726 21.0982 15.6954 21.1703 15.6986C21.2556 15.7062 21.3421 15.6954 21.4296 15.6715C21.4318 15.6705 21.4329 15.6705 21.4329 15.6705C21.4562 15.665 21.4795 15.6694 21.5028 15.6596C21.6258 15.6141 21.72 15.5372 21.8009 15.4474L24.8136 12.9488C25.1339 12.6857 24.9987 12.22 24.7293 11.907Z" fill="currentColor"/>
       <path d="M20.9191 10.1263C22.0853 10.1263 23.0306 9.20259 23.0306 8.06314C23.0306 6.9237 22.0853 6 20.9191 6C19.753 6 18.8076 6.9237 18.8076 8.06314C18.8076 9.20259 19.753 10.1263 20.9191 10.1263Z" fill="currentColor"/>
    </symbol>
    <symbol id="dumbbell" viewBox="0 0 20 20" fill="none" xmlns="http://www.w3.org/2000/svg">
      <path d="M4.6 5.71429H3.4C3.0675 5.71429 2.8 6.00089 2.8 6.35714V9.14286H2.2C2.09 9.14286 2 9.23929 2 9.35714V10.6429C2 10.7607 2.09 10.8571 2.2 10.8571H2.8V13.6429C2.8 13.9991 3.0675 14.2857 3.4 14.2857H4.6C4.9325 14.2857 5.2 13.9991 5.2 13.6429V6.35714C5.2 6.00089 4.9325 5.71429 4.6 5.71429ZM17.8 9.14286H17.2V6.35714C17.2 6.00089 16.9325 5.71429 16.6 5.71429H15.4C15.0675 5.71429 14.8 6.00089 14.8 6.35714V13.6429C14.8 13.9991 15.0675 14.2857 15.4 14.2857H16.6C16.9325 14.2857 17.2 13.9991 17.2 13.6429V10.8571H17.8C17.91 10.8571 18 10.7607 18 10.6429V9.35714C18 9.23929 17.91 9.14286 17.8 9.14286ZM13.4 4H12.2C11.8675 4 11.6 4.28661 11.6 4.64286V9.14286H8.4V4.64286C8.4 4.28661 8.1325 4 7.8 4H6.6C6.2675 4 6 4.28661 6 4.64286V15.3571C6 15.7134 6.2675 16 6.6 16H7.8C8.1325 16 8.4 15.7134 8.4 15.3571V10.8571H11.6V15.3571C11.6 15.7134 11.8675 16 12.2 16H13.4C13.7325 16 14 15.7134 14 15.3571V4.64286C14 4.28661 13.7325 4 13.4 4Z" fill="currentColor"/>
    </symbol>
    <symbol id="inverted-commas" viewBox="0 0 24 24" fill="none" xmlns="http://www.w3.org/2000/svg">
      <path d="M6.15077 13.1014C7.31014 12.642 8.23983 12.7623 8.93984 13.4623C9.63984 14.1623 9.84764 15.2779 9.56326 16.8092C9.34452 17.9467 8.86328 18.8217 8.11952 19.4342C7.39764 20.0248 6.55546 20.3201 5.59296 20.3201C4.28045 20.3201 3.37265 19.817 2.86952 18.8107C2.3664 17.7826 2.26796 16.4045 2.57421 14.6764C2.7492 13.7357 3.03358 12.7842 3.42732 11.8217C3.82109 10.8592 4.34609 9.87481 5.00232 8.86856C5.65858 7.86232 6.51171 6.9873 7.56171 6.24356C8.61171 5.4998 9.77108 5.01856 11.0398 4.7998L10.7117 8.27792C9.63984 8.49668 8.68827 9.05449 7.85703 9.95137C7.02576 10.8264 6.45701 11.8764 6.15077 13.1014ZM16.0273 13.1014C17.1867 12.642 18.1164 12.7623 18.8164 13.4623C19.5164 14.1623 19.7242 15.2779 19.4398 16.8092C19.2211 17.9467 18.7398 18.8217 17.9961 19.4342C17.2742 20.0248 16.432 20.3201 15.4695 20.3201C14.157 20.3201 13.2492 19.817 12.7461 18.8107C12.243 17.7826 12.1445 16.4045 12.4508 14.6764C12.6258 13.7357 12.9102 12.7842 13.3039 11.8217C13.6976 10.8592 14.2226 9.87481 14.8789 8.86856C15.5352 7.86232 16.3883 6.9873 17.4383 6.24356C18.4883 5.4998 19.6477 5.01856 20.9164 4.7998L20.5883 8.27792C19.5164 8.49668 18.5648 9.05449 17.7336 9.95137C16.9023 10.8264 16.3336 11.8764 16.0273 13.1014Z" fill="currentColor"/>
    </symbol>
    <symbol id="number-1" viewBox="0 0 20 20" fill="none" xmlns="http://www.w3.org/2000/svg">
      <text x="10" y="15" font-size="15" text-anchor="middle" fill="#242424">1</text>
    </symbol>
    <symbol id="number-2" viewBox="0 0 20 20" fill="none" xmlns="http://www.w3.org/2000/svg">
      <text x="10" y="15" font-size="15" text-anchor="middle" fill="#242424">2</text>
    </symbol>
    <symbol id="number-3" viewBox="0 0 20 20" fill="none" xmlns="http://www.w3.org/2000/svg">
      <text x="10" y="15" font-size="15" text-anchor="middle" fill="#242424">3</text>
    </symbol>
    <symbol id="star" viewBox="0 0 24 24" xmlns="http://www.w3.org/2000/svg">
      <path d="M12 2L15.09 8.26L22 9.27L17 14.14L18.18 21.02L12 17.77L5.82 21.02L7 14.14L2 9.27L8.91 8.26L12 2Z" fill="currentColor" />
    </symbol>
    <symbol id="heart" viewBox="0 0 20 20" fill="none" xmlns="http://www.w3.org/2000/svg">
      <path d="M17.3671 3.84172C16.9415 3.41589 16.4361 3.0781 15.8799 2.84763C15.3237 2.61716 14.7275 2.49854 14.1254 2.49854C13.5234 2.49854 12.9272 2.61716 12.371 2.84763C11.8147 3.0781 11.3094 3.41589 10.8838 3.84172L10.0004 4.72506L9.11709 3.84172C8.25735 2.98198 7.09128 2.49898 5.87542 2.49898C4.65956 2.49898 3.4935 2.98198 2.63376 3.84172C1.77401 4.70147 1.29102 5.86753 1.29102 7.08339C1.29102 8.29925 1.77401 9.46531 2.63376 10.3251L3.51709 11.2084L10.0004 17.6917L16.4838 11.2084L17.3671 10.3251C17.7929 9.89943 18.1307 9.39407 18.3612 8.83785C18.5917 8.28164 18.7103 7.68546 18.7103 7.08339C18.7103 6.48132 18.5917 5.88514 18.3612 5.32893C18.1307 4.77271 17.7929 4.26735 17.3671 3.84172Z" stroke="currentColor" stroke-width="1.5" stroke-linecap="round" stroke-linejoin="round"/>
    </symbol>
    <symbol id="basket" viewBox="0 0 20 20" fill="none" xmlns="http://www.w3.org/2000/svg">
      <path d="M13.3333 4.99996V4.33329C13.3333 3.39987 13.3333 2.93316 13.1517 2.57664C12.9919 2.26304 12.7369 2.00807 12.4233 1.84828C12.0668 1.66663 11.6001 1.66663 10.6667 1.66663H9.33333C8.39991 1.66663 7.9332 1.66663 7.57668 1.84828C7.26308 2.00807 7.00811 2.26304 6.84832 2.57664C6.66667 2.93316 6.66667 3.39987 6.66667 4.33329V4.99996M8.33333 9.58329V13.75M11.6667 9.58329V13.75M2.5 4.99996H17.5M15.8333 4.99996V14.3333C15.8333 15.7334 15.8333 16.4335 15.5608 16.9683C15.3212 17.4387 14.9387 17.8211 14.4683 18.0608C13.9335 18.3333 13.2335 18.3333 11.8333 18.3333H8.16667C6.76654 18.3333 6.06647 18.3333 5.53169 18.0608C5.06129 17.8211 4.67883 17.4387 4.43915 16.9683C4.16667 16.4335 4.16667 15.7334 4.16667 14.3333V4.99996" stroke="currentColor" stroke-width="1.5" stroke-linecap="round" stroke-linejoin="round"/>
    </symbol>
    <symbol id="search" viewBox="0 0 18 18" fill="none" xmlns="http://www.w3.org/2000/svg">
      <path d="M8.25 14.25C11.5637 14.25 14.25 11.5637 14.25 8.25C14.25 4.93629 11.5637 2.25 8.25 2.25C4.93629 2.25 2.25 4.93629 2.25 8.25C2.25 11.5637 4.93629 14.25 8.25 14.25Z" stroke="currentColor" stroke-width="1.5" stroke-linecap="round" stroke-linejoin="round"/>
      <path d="M15.7498 15.75L12.4873 12.4875" stroke="currentColor" stroke-width="1.5" stroke-linecap="round" stroke-linejoin="round"/>
    </symbol>
    <symbol id="cross" viewBox="0 0 18 18" fill="none" xmlns="http://www.w3.org/2000/svg">
      <path d="M12.75 5.25L5.25 12.75M5.25 5.25L12.75 12.75" stroke="currentColor" stroke-width="1.5" stroke-linecap="round" stroke-linejoin="round"/>
    </symbol>
    <symbol id="scroll-up" viewBox="0 0 47 48" fill="none" xmlns="http://www.w3.org/2000/svg">
      <path fill-rule="evenodd" clip-rule="evenodd" d="M24.6192 11.4778L24.6192 37.0059L21.9033 37.0059L21.9033 11.4778L9.13919 24.2419L7.21875 22.3214L23.2612 6.27893L39.3037 22.3214L37.3833 24.2419L24.6192 11.4778Z" fill="currentColor" stroke="currentColor" stroke-width="0.3"/>
    </symbol>
  </defs>
</svg>
