<svg xmlns="http://www.w3.org/2000/svg" aria-hidden="true" style="position:absolute;width:0;height:0;overflow:hidden">
  <defs>
    <symbol id="favicon" viewBox="0 0 32 32">
      <path fill="#242424" d="M32 16c0 8.837-7.163 16-16 16S0 24.837 0 16 7.163 0 16 0s16 7.163 16 16z" style="fill:var(--color1, #242424)"/>
      <path fill="#f4f4f4" d="M10.6 11.714H9.4c-.332 0-.6.287-.6.643v2.786h-.6c-.11 0-.2.096-.2.214v1.286c0 .118.09.214.2.214h.6v2.786c0 .356.268.643.6.643h1.2c.332 0 .6-.287.6-.643v-7.286c0-.356-.268-.643-.6-.643zm13.2 3.429h-.6v-2.786c0-.356-.267-.643-.6-.643h-1.2c-.332 0-.6.287-.6.643v7.286c0 .356.267.643.6.643h1.2c.332 0 .6-.287.6-.643v-2.786h.6c.11 0 .2-.096.2-.214v-1.286c0-.118-.09-.214-.2-.214zM19.4 10h-1.2c-.332 0-.6.287-.6.643v4.5h-3.2v-4.5c0-.356-.268-.643-.6-.643h-1.2c-.332 0-.6.287-.6.643v10.714c0 .356.268.643.6.643h1.2c.332 0 .6-.287.6-.643v-4.5h3.2v4.5c0 .356.267.643.6.643h1.2c.332 0 .6-.287.6-.643V10.643c0-.356-.267-.643-.6-.643z" style="fill:var(--color3, #f4f4f4)"/>
    </symbol>
    <symbol id="facebook" viewBox="0 0 32 32">
      <path fill="none" stroke-width=".727" d="M7.273.364h17.455a6.909 6.909 0 0 1 6.909 6.909v17.455a6.909 6.909 0 0 1-6.909 6.909H7.273a6.909 6.909 0 0 1-6.909-6.909V7.273A6.909 6.909 0 0 1 7.273.364z" style="stroke:none"/>
      <path d="M18.24 8.771h.611v2.291h-.764c-.306 0-.611 0-.764.153-.153.153-.153.305-.153.662v.815h1.68v1.935h-1.68v8.4h-2.596v-8.451h-1.375v-1.935h1.375v-.662c0-1.12.153-1.935.458-2.291.458-.662 1.375-.967 2.749-.967.153.051.305.051.458.051z"/>
    </symbol>
    <symbol id="instagram" viewBox="0 0 32 32">
      <path fill="none" stroke-width=".727" d="M7.273.364h17.455a6.909 6.909 0 0 1 6.909 6.909v17.455a6.909 6.909 0 0 1-6.909 6.909H7.273a6.909 6.909 0 0 1-6.909-6.909V7.273A6.909 6.909 0 0 1 7.273.364z" style="stroke:none"/>
      <path d="M24.093 12.663a5.895 5.895 0 0 0-.379-2.001 4.166 4.166 0 0 0-2.382-2.378 5.96 5.96 0 0 0-1.978-.379c-.87-.039-1.146-.05-3.355-.05s-2.492 0-3.356.05a5.99 5.99 0 0 0-1.977.379 4.163 4.163 0 0 0-2.382 2.378 5.916 5.916 0 0 0-.379 1.973c-.039.87-.051 1.145-.051 3.351s0 2.487.051 3.351c.014.676.141 1.342.379 1.975a4.166 4.166 0 0 0 2.383 2.377 5.94 5.94 0 0 0 1.977.406c.871.039 1.147.051 3.356.051s2.492 0 3.356-.051a6 6 0 0 0 1.978-.378 4.172 4.172 0 0 0 2.382-2.378 5.948 5.948 0 0 0 .379-1.975c.039-.869.051-1.144.051-3.351-.002-2.205-.002-2.485-.052-3.35zm-8.099 7.493c-2.31 0-4.182-1.869-4.182-4.175s1.872-4.175 4.182-4.175c2.309 0 4.182 1.869 4.182 4.175s-1.874 4.175-4.182 4.175zm4.348-7.531a.973.973 0 1 1 0-1.948.973.973 0 1 1 0 1.948z"/>
      <path d="M15.995 18.53a2.548 2.548 0 1 0 0-5.097 2.548 2.548 0 0 0 0 5.097z"/>
    </symbol>
    <symbol id="youtube" viewBox="0 0 32 32">
      <path fill="none" stroke-width=".727" d="M7.273.364h17.455a6.909 6.909 0 0 1 6.909 6.909v17.455a6.909 6.909 0 0 1-6.909 6.909H7.273a6.909 6.909 0 0 1-6.909-6.909V7.273A6.909 6.909 0 0 1 7.273.364z" style="stroke:none"/>
      <path d="M21.244 9.636c-.866-.051-2.647-.102-5.345-.102h-.356c-2.596 0-4.327.051-5.193.153-1.171.102-1.986.407-2.444.815-.407.356-.713 1.018-.814 1.884-.051.56-.102 1.731-.102 3.513v.255c0 1.68.051 2.851.153 3.411.153.815.407 1.425.916 1.782.509.407 1.375.662 2.596.764.865.051 2.647.102 5.345.102h.356c2.596 0 4.327-.051 5.193-.153 1.171-.102 1.985-.407 2.444-.815.407-.356.713-1.018.814-1.884.051-.56.102-1.731.102-3.513v-.255c0-1.68-.051-2.851-.153-3.411-.153-.815-.407-1.425-.916-1.782-.509-.407-1.375-.662-2.596-.764zm-1.986 6.262-5.6 3.36v-6.72l5.6 3.36z"/>
    </symbol>
    <symbol id="men" viewBox="0 0 32 32">
      <path d="M29.647 9.451a1.185 1.185 0 0 0-1.667-.149l-3.282 2.757-1.509-3.739a1.163 1.163 0 0 0-.229-.362 3.215 3.215 0 0 0-1.582-1.617 3.24 3.24 0 0 0-.982-.262c-.073-.038-.139-.088-.222-.114l-5.775-1.61a1.19 1.19 0 0 0-.917.125 1.155 1.155 0 0 0-.719.672l-2.175 5.592a1.188 1.188 0 0 0 .676 1.534 1.187 1.187 0 0 0 1.532-.678l1.837-4.722 2.63.731c-.064.104-.133.201-.185.312l-3.372 7.309c-.049.107-.075.217-.109.328l-4.098 6.871-6.859 2.294a1.751 1.751 0 0 0 2.081 2.819l7.018-2.417c.215-.156.371-.36.489-.58.088-.094.189-.168.256-.284l2.443-4.096 4.337 3.696-4.641 5.23a1.75 1.75 0 1 0 2.622 2.32l5.791-6.524a1.72 1.72 0 0 0 .36-.676c.043-.132.043-.269.054-.406 0-.069.026-.132.021-.196a1.72 1.72 0 0 0-.601-1.274l-3.991-3.403c.288-.274.532-.6.709-.983l2.585-5.599.828 2.206c.035.196.1.388.239.549.125.149.284.248.454.317.017.009.038.01.059.016.107.038.216.075.329.08.133.012.269-.005.405-.043l.005-.002c.036-.009.073-.002.109-.017a1.17 1.17 0 0 0 .466-.34l4.71-3.998c.501-.421.289-1.166-.132-1.667zM23.69 6.602a3.301 3.301 0 1 0 0-6.602 3.301 3.301 0 0 0 0 6.602z"/>
    </symbol>
    <symbol id="dumbbell" viewBox="0 0 32 32">
      <path d="M7.36 9.143H5.44c-.532 0-.96.459-.96 1.029v4.457h-.96c-.176 0-.32.154-.32.343v2.057c0 .188.144.343.32.343h.96v4.457c0 .57.428 1.028.96 1.028h1.92c.532 0 .96-.459.96-1.028V10.172c0-.57-.428-1.029-.96-1.029zm21.12 5.486h-.96v-4.457c0-.57-.428-1.029-.96-1.029h-1.92c-.532 0-.96.459-.96 1.029v11.657c0 .57.428 1.028.96 1.028h1.92c.532 0 .96-.459.96-1.028v-4.457h.96c.176 0 .32-.154.32-.343v-2.057c0-.189-.144-.343-.32-.343zM21.44 6.4h-1.92c-.532 0-.96.459-.96 1.029v7.2h-5.12v-7.2c0-.57-.428-1.029-.96-1.029h-1.92c-.532 0-.96.459-.96 1.029v17.143c0 .57.428 1.029.96 1.029h1.92c.532 0 .96-.459.96-1.029v-7.2h5.12v7.2c0 .57.428 1.029.96 1.029h1.92c.532 0 .96-.459.96-1.029V7.429c0-.57-.428-1.029-.96-1.029z"/>
    </symbol>
    <symbol id="stroke" viewBox="0 0 32 32">
      <path d="m14.254 13.505.363.372L10.151 1.08l5.321 12.466.018-.52.441-13.027.441 13.026.018.52 5.321-12.466-4.466 12.797 9.465-9.702-8.787 10.32 12.331-5.628-11.922 6.449 13.531-.793-13.446 1.707 12.904 4.148-13.155-3.266 10.534 8.53-11.087-7.798 6.741 11.759-7.521-11.276 2.038 13.4-2.94-13.232-2.94 13.232 2.038-13.4-7.521 11.276 6.741-11.759-11.087 7.798 10.534-8.53L.541 20.377l12.904-4.148-13.446-1.707 13.531.793L1.608 8.866l12.331 5.628-8.787-10.32 9.102 9.33zm.931.566-.646.4-.458.607-.208.731.07.757.339.68.562.512.709.275h.76l.709-.275.562-.512.339-.68.07-.757-.208-.731-.458-.607-.646-.4-.747-.14-.747.14z"/>
    </symbol>
    <symbol id="inverted-commas" viewBox="0 0 32 32">
      <path fill="#f4f4f4" d="M8.201 17.469c1.546-.613 2.785-.452 3.719.481s1.21 2.421.831 4.463c-.292 1.517-.933 2.683-1.925 3.5-.963.787-2.085 1.181-3.369 1.181-1.75 0-2.96-.671-3.631-2.013-.671-1.371-.802-3.208-.394-5.512.233-1.254.613-2.523 1.137-3.806s1.225-2.596 2.1-3.938 2.013-2.508 3.413-3.5 2.946-1.633 4.637-1.925l-.437 4.638c-1.429.292-2.698 1.035-3.806 2.231-1.108 1.167-1.867 2.567-2.275 4.2zm13.169 0c1.546-.613 2.785-.452 3.719.481s1.21 2.421.831 4.463c-.292 1.517-.933 2.683-1.925 3.5-.963.787-2.085 1.181-3.369 1.181-1.75 0-2.96-.671-3.631-2.013-.671-1.371-.802-3.208-.394-5.512.233-1.254.613-2.523 1.137-3.806s1.225-2.596 2.1-3.938 2.013-2.508 3.413-3.5 2.946-1.633 4.637-1.925l-.437 4.638c-1.429.292-2.698 1.035-3.806 2.231-1.108 1.167-1.867 2.567-2.275 4.2z" style="fill:var(--color3, #f4f4f4)"/>
    </symbol>
    <symbol id="stars" viewBox="0 0 34 32">
      <path d="M14.782 1.655c.771-2.372 4.126-2.372 4.896 0l2.175 6.695a2.574 2.574 0 0 0 2.448 1.779h7.039c2.494 0 3.53 3.191 1.513 4.657l-5.695 4.138a2.573 2.573 0 0 0-.935 2.878l2.175 6.695c.771 2.372-1.944 4.344-3.961 2.878l-5.695-4.138a2.576 2.576 0 0 0-3.026 0l-5.695 4.138c-2.017 1.466-4.732-.506-3.961-2.878l2.175-6.695a2.574 2.574 0 0 0-.935-2.878l-5.695-4.138c-2.017-1.466-.981-4.657 1.513-4.657h7.039a2.573 2.573 0 0 0 2.448-1.779l2.175-6.695z"/>
    </symbol>
    <symbol id="block" viewBox="0 0 101 32">
      <path fill="none" stroke="#242424" d="M16 .5C24.56.5 31.5 7.44 31.5 16S24.56 31.5 16 31.5C7.44 31.5.5 24.56.5 16S7.44.5 16 .5z" style="stroke:var(--color1, #242424)"/>
      <path fill="#242424" d="M15.432 24V9.456l-2.712.6V8.664L16.104 7.2h1.368V24h-2.04z" style="fill:var(--color1, #242424)"/>
      <path fill="#d5d5d5" d="M41.512 24v-1.416a62.264 62.264 0 0 0 3.216-2.712 30.948 30.948 0 0 0 2.712-2.712c.8-.912 1.424-1.8 1.872-2.664.464-.864.696-1.696.696-2.496 0-.592-.104-1.136-.312-1.632-.192-.512-.512-.928-.96-1.248s-1.056-.48-1.824-.48c-.736 0-1.352.168-1.848.504a3.06 3.06 0 0 0-1.128 1.296 4.185 4.185 0 0 0-.36 1.752h-1.944c.016-1.104.248-2.048.696-2.832.464-.8 1.096-1.408 1.896-1.824s1.704-.624 2.712-.624c.992 0 1.872.192 2.64.576.768.368 1.368.92 1.8 1.656s.648 1.664.648 2.784c0 .784-.16 1.568-.48 2.352s-.752 1.552-1.296 2.304c-.544.736-1.144 1.448-1.8 2.136s-1.328 1.336-2.016 1.944a65.026 65.026 0 0 1-1.944 1.656H52.6V24H41.512zM69.008 24.288c-1.072 0-2.04-.192-2.904-.576a5.005 5.005 0 0 1-2.088-1.776c-.512-.784-.784-1.76-.816-2.928h2.04c.016.96.352 1.792 1.008 2.496.656.688 1.576 1.032 2.76 1.032s2.072-.328 2.664-.984c.608-.656.912-1.448.912-2.376 0-.784-.192-1.424-.576-1.92-.368-.496-.872-.864-1.512-1.104a5.705 5.705 0 0 0-2.064-.36h-1.248v-1.704h1.248c1.088 0 1.936-.248 2.544-.744.624-.496.936-1.192.936-2.088 0-.752-.248-1.368-.744-1.848-.48-.496-1.2-.744-2.16-.744-.928 0-1.672.28-2.232.84-.56.544-.872 1.232-.936 2.064H63.8c.048-.912.288-1.72.72-2.424a4.504 4.504 0 0 1 1.824-1.632c.768-.4 1.656-.6 2.664-.6 1.088 0 1.992.192 2.712.576.736.384 1.288.896 1.656 1.536.384.64.576 1.344.576 2.112 0 .848-.232 1.624-.696 2.328-.464.688-1.16 1.152-2.088 1.392.992.208 1.816.68 2.472 1.416s.984 1.704.984 2.904c0 .928-.216 1.784-.648 2.568-.416.768-1.04 1.384-1.872 1.848s-1.864.696-3.096.696zM87.352 24.12c-.4 0-.736-.128-1.008-.384-.256-.272-.384-.6-.384-.984s.128-.704.384-.96a1.37 1.37 0 0 1 1.008-.408c.384 0 .704.136.96.408.272.256.408.576.408.96s-.136.712-.408.984a1.302 1.302 0 0 1-.96.384zm5.647 0c-.4 0-.736-.128-1.008-.384-.256-.272-.384-.6-.384-.984s.128-.704.384-.96a1.37 1.37 0 0 1 1.008-.408c.384 0 .704.136.96.408.272.256.408.576.408.96s-.136.712-.408.984a1.302 1.302 0 0 1-.96.384zm5.648 0c-.4 0-.736-.128-1.008-.384-.256-.272-.384-.6-.384-.984s.128-.704.384-.96a1.37 1.37 0 0 1 1.008-.408c.384 0 .704.136.96.408.272.256.408.576.408.96s-.136.712-.408.984a1.302 1.302 0 0 1-.96.384z" style="fill:var(--color2, #d5d5d5)"/>
    </symbol>
    <symbol id="heart" viewBox="0 0 32 32">
      <path stroke-linecap="round" stroke-linejoin="round" stroke-width="2.4" d="M27.787 6.147a7.345 7.345 0 0 0-5.187-2.15 7.33 7.33 0 0 0-5.187 2.15L16 7.56l-1.413-1.413a7.333 7.333 0 0 0-10.374 0 7.333 7.333 0 0 0 0 10.374L16 28.308l11.787-11.787a7.345 7.345 0 0 0 2.15-5.187 7.33 7.33 0 0 0-2.15-5.187z"/>
    </symbol>
    <symbol id="basket" viewBox="0 0 32 32">
      <path stroke="#242424" stroke-linecap="round" stroke-linejoin="round" stroke-width="1.3" d="M9.667 4v-.533c0-.747 0-1.12-.146-1.406a1.333 1.333 0 0 0-.582-.582c-.286-.146-.659-.146-1.406-.146H6.467c-.747 0-1.12 0-1.406.146a1.33 1.33 0 0 0-.582.582c-.146.286-.146.659-.146 1.406V4m1.334 3.667V11m2.666-3.333V11M1 4h12m-1.333 0v7.467c0 1.12 0 1.68-.218 2.108a2 2 0 0 1-.874.874c-.428.218-.988.218-2.108.218H5.533c-1.12 0-1.68 0-2.108-.218a2 2 0 0 1-.874-.874c-.218-.428-.218-.988-.218-2.108V4"/>
    </symbol>
    <symbol id="icon-clear-search" fill="none">
      <path stroke="#242424" stroke-linecap="round" stroke-linejoin="round" stroke-width="1.5" d="m12.75 5.25-7.5 7.5m0-7.5 7.5 7.5"/>
    </symbol>
    <symbol id="icon-search" fill="none">
      <path stroke="#242424" stroke-linecap="round" stroke-linejoin="round" stroke-width="1.5" d="M8.25 14.25a6 6 0 1 0 0-12 6 6 0 0 0 0 12Zm7.5 1.5-3.263-3.262"/>
    </symbol>
    <symbol id="cross" viewBox="0 0 32 32">
      <path fill="none" stroke-linecap="round" stroke-linejoin="round" stroke-width="2.667" d="M22.667 9.333 9.334 22.666M9.333 9.333l13.333 13.333"/>
    </symbol>
    <symbol id="scroll-up" viewBox="0 0 31 32">
      <path fill="#f4f4f4" d="M16.413 7.652v17.019h-1.811V7.652l-8.509 8.509-1.28-1.28L15.508 4.186l10.695 10.695-1.28 1.28-8.509-8.509z" style="fill:var(--color3, #f4f4f4)"/>
    </symbol>
    <symbol id="burger" viewBox="0 0 32 32">
      <path fill="none" stroke-linecap="round" stroke-linejoin="round" stroke-width="2" d="M28 13.333H4M28 8H4M28 18.667H4M28 24H4"/>
    </symbol>
    <symbol id="icon-your-energy" viewBox="0 0 132 24">
      <path d="M4.98 13.28 0 5h2.98l3.34 5.74h.04L9.7 5h2.98L7.7 13.28V19H4.98v-5.72zm7.69 3.42V7.3l2.3-2.3h7.2l2.3 2.3v9.4l-2.3 2.3h-7.2l-2.3-2.3zm8.06-.02 1.02-1.02V8.34l-1.02-1.02h-4.32l-1.02 1.02v7.32l1.02 1.02h4.32zm5.644-.08V5h2.72v10.66l1.02 1.02h3.92l1.02-1.02V5h2.72v11.6l-2.4 2.4h-6.6l-2.4-2.4zm24.504-2.24V19h-2.72v-4.02l-1.2-1.34h-4.36V19h-2.72V5h8.78l2.14 2.16v4.24l-1.36 1.38 1.44 1.58zm-8.28-2.96h4.82l.7-.7V7.98l-.7-.7h-4.82v4.12zM57.823 5h10.12v2.3h-7.4v3.54h6.82v2.26h-6.82v3.6h7.4V19h-10.12V5zm11.629 0h2.44l6.24 9.5h.04V5h2.62v14h-2.44l-6.24-9.48h-.04V19h-2.62V5zm13.446 0h10.12v2.3h-7.4v3.54h6.82v2.26h-6.82v3.6h7.4V19h-10.12V5zm22.629 9.36V19h-2.72v-4.02l-1.2-1.34h-4.36V19h-2.72V5h8.78l2.14 2.16v4.24l-1.36 1.38 1.44 1.58zm-8.28-2.96h4.82l.7-.7V7.98l-.7-.7h-4.82v4.12zm10.076 5.3V7.3l2.3-2.3h6.96l2.26 2.26V9.4h-2.72V8.26l-.94-.94h-4.12l-1.02 1.02v7.32l1.02 1.02h4.16l.98-.98v-2.18h-3V11.2h5.64v5.5l-2.3 2.3h-6.92l-2.3-2.3zm16.505-3.42L118.848 5h2.98l3.34 5.74h.04l3.34-5.74h2.98l-4.98 8.28V19h-2.72v-5.72z"/>
    </symbol>
    <symbol id="icon-arrow" viewBox="0 0 32 32">
      <path fill="none" stroke-linecap="round" stroke-linejoin="round" stroke-width="1.3" d="M7.5 14 14 7.5m0 0L7.5 1M14 7.5H1"/>
    </symbol>
    <symbol id="icon-arrow-single-right" viewBox="0 0 32 32">
      <path d="M17.598 16.947a1.334 1.334 0 0 0 0-1.894l-6.12-6.107a1.334 1.334 0 1 1 1.88-1.894l6.12 6.12a4.001 4.001 0 0 1 0 5.654l-6.12 6.12a1.337 1.337 0 0 1-2.172-.434 1.331 1.331 0 0 1 .292-1.46l6.12-6.107z"/>
    </symbol>
    <symbol id="icon-arrow-single-left" viewBox="0 0 32 32">
      <path d="M14.133 16.947a1.334 1.334 0 0 1 0-1.894l6.12-6.107a1.334 1.334 0 1 0-1.88-1.894l-6.12 6.12a4.001 4.001 0 0 0 0 5.654l6.12 6.12a1.337 1.337 0 0 0 2.172-.434 1.33 1.33 0 0 0 0-1.026 1.344 1.344 0 0 0-.292-.434l-6.12-6.107z"/>
    </symbol>
    <symbol id="icon-arrow-double-right" viewBox="0 0 32 32">
      <path d="M22.398 16.947a1.334 1.334 0 0 0 0-1.894l-6.12-6.107a1.334 1.334 0 1 1 1.88-1.894l6.12 6.12a4.001 4.001 0 0 1 0 5.654l-6.12 6.12a1.337 1.337 0 0 1-2.172-.434 1.331 1.331 0 0 1 .292-1.46l6.12-6.107zM11.198 16.947a1.334 1.334 0 0 0 0-1.894l-6.12-6.107a1.334 1.334 0 1 1 1.88-1.894l6.12 6.12a4.001 4.001 0 0 1 0 5.654l-6.12 6.12a1.337 1.337 0 0 1-2.172-.434 1.331 1.331 0 0 1 .292-1.46l6.12-6.107z"/>
    </symbol>
    <symbol id="icon-arrow-double-left" viewBox="0 0 32 32">
  <path d="M7.733 16.947c-0.125-0.124-0.224-0.271-0.292-0.434s-0.103-0.337-0.103-0.513 0.035-0.35 0.103-0.513c0.068-0.162 0.167-0.31 0.292-0.434l6.12-6.107c0.125-0.124 0.224-0.271 0.292-0.434s0.103-0.337 0.103-0.513c0-0.176-0.035-0.35-0.103-0.513s-0.167-0.31-0.292-0.434c-0.25-0.248-0.588-0.388-0.94-0.388s-0.69 0.139-0.94 0.388l-6.12 6.12c-0.749 0.75-1.17 1.767-1.17 2.827s0.421 2.077 1.17 2.827l6.12 6.12c0.248 0.246 0.584 0.385 0.933 0.387 0.175 0.001 0.349-0.033 0.512-0.099s0.31-0.164 0.435-0.288c0.125-0.124 0.224-0.271 0.292-0.434s0.103-0.337 0.103-0.513-0.035-0.35-0.103-0.513c-0.068-0.162-0.167-0.31-0.292-0.434l-6.12-6.107z"></path>
  <path d="M18.933 16.947c-0.125-0.124-0.224-0.271-0.292-0.434s-0.103-0.337-0.103-0.513 0.035-0.35 0.103-0.513c0.068-0.162 0.167-0.31 0.292-0.434l6.12-6.107c0.125-0.124 0.224-0.271 0.292-0.434s0.102-0.337 0.102-0.513c0-0.176-0.035-0.35-0.102-0.513s-0.167-0.31-0.292-0.434c-0.25-0.248-0.588-0.388-0.94-0.388s-0.69 0.139-0.94 0.388l-6.12 6.12c-0.749 0.75-1.17 1.767-1.17 2.827s0.421 2.077 1.17 2.827l6.12 6.12c0.248 0.246 0.584 0.385 0.933 0.387 0.176 0.001 0.349-0.033 0.512-0.099s0.31-0.164 0.435-0.288c0.125-0.124 0.224-0.271 0.292-0.434s0.102-0.337 0.102-0.513-0.035-0.35-0.102-0.513c-0.068-0.162-0.167-0.31-0.292-0.434l-6.12-6.107z"></path>
</symbol>
    <symbol id="sun-icon" fill="none" viewBox="0 0 38 38">
      <path fill="#242424" fill-rule="evenodd" d="m17 16.175.433.447-5.326-15.328 6.102 14.357.244.574.021-.623L19 0l.526 15.601.021.624.244-.574 6.102-14.357-5.121 14.739-.205.588.433-.446L31.855 5.001 21.778 16.887l-.402.475 14.705-6.74-13.672 7.426-.546.297.62-.036L38 17.395l-16.036 2.044 15.389 4.968-15.086-3.761-.602-.15.482.392 12.08 9.823-12.714-8.98-.508-.359.309.541 7.731 13.543-8.625-12.987-.345-.518L22.506 38 19 22.153 15.494 38l2.337-15.433.094-.616-.345.518-8.625 12.987 7.73-13.543.31-.54-.508.358-12.714 8.98 12.08-9.823.482-.392-.602.15L.647 24.407l14.798-4.777.591-.191L0 17.395l16.137.95-.546-.296L1.92 10.62l14.706 6.74-10.48-12.36L17 16.175Zm1.109.678-.77.48-.547.726-.248.876.083.906.404.815.67.614.846.328h.906l.846-.328.67-.614.404-.815.083-.906-.248-.876-.546-.727-.77-.479-.892-.167-.891.167Z" clip-rule="evenodd"/>
    </symbol>
  </defs>
</svg>