<svg aria-hidden="true" style="position: absolute; width: 0; height: 0; overflow: hidden;" version="1.1" xmlns="http://www.w3.org/2000/svg" xmlns:xlink="http://www.w3.org/1999/xlink">
<defs>
  <symbol id="favicon" viewBox="0 0 32 32">
    <path fill="#242424" style="fill: var(--color1, #242424)" d="M32 16c0 8.837-7.163 16-16 16s-16-7.163-16-16c0-8.837 7.163-16 16-16s16 7.163 16 16z"></path>
    <path fill="#f4f4f4" style="fill: var(--color3, #f4f4f4)" d="M10.6 11.714h-1.2c-0.332 0-0.6 0.287-0.6 0.643v2.786h-0.6c-0.11 0-0.2 0.096-0.2 0.214v1.286c0 0.118 0.090 0.214 0.2 0.214h0.6v2.786c0 0.356 0.268 0.643 0.6 0.643h1.2c0.332 0 0.6-0.287 0.6-0.643v-7.286c0-0.356-0.268-0.643-0.6-0.643zM23.8 15.143h-0.6v-2.786c0-0.356-0.267-0.643-0.6-0.643h-1.2c-0.332 0-0.6 0.287-0.6 0.643v7.286c0 0.356 0.267 0.643 0.6 0.643h1.2c0.332 0 0.6-0.287 0.6-0.643v-2.786h0.6c0.11 0 0.2-0.096 0.2-0.214v-1.286c0-0.118-0.090-0.214-0.2-0.214zM19.4 10h-1.2c-0.332 0-0.6 0.287-0.6 0.643v4.5h-3.2v-4.5c0-0.356-0.268-0.643-0.6-0.643h-1.2c-0.332 0-0.6 0.287-0.6 0.643v10.714c0 0.356 0.268 0.643 0.6 0.643h1.2c0.332 0 0.6-0.287 0.6-0.643v-4.5h3.2v4.5c0 0.356 0.267 0.643 0.6 0.643h1.2c0.332 0 0.6-0.287 0.6-0.643v-10.714c0-0.356-0.267-0.643-0.6-0.643z"></path>
  </symbol>
  <symbol id="facebook" viewBox="0 0 32 32">
    <path fill="none" stroke="none" style="stroke: none" stroke-linejoin="miter" stroke-linecap="butt" stroke-miterlimit="4" stroke-width="0.7273" d="M7.273 0.364h17.455c3.816 0 6.909 3.093 6.909 6.909v17.455c0 3.816-3.093 6.909-6.909 6.909h-17.455c-3.816 0-6.909-3.093-6.909-6.909v-17.455c0-3.816 3.093-6.909 6.909-6.909z"></path>
    <path d="M18.24 8.771c0.153 0 0.305 0 0.611 0v2.291c-0.153 0-0.458 0-0.764 0s-0.611 0-0.764 0.153c-0.153 0.153-0.153 0.305-0.153 0.662 0 0.305 0 0.509 0 0.815h1.68v1.935h-1.68v8.4h-2.596v-8.451h-1.375v-1.935h1.375v-0.662c0-1.12 0.153-1.935 0.458-2.291 0.458-0.662 1.375-0.967 2.749-0.967 0.153 0.051 0.305 0.051 0.458 0.051z"></path>
  </symbol>
  <symbol id="instagram" viewBox="0 0 32 32">
    <path fill="none" stroke="none" style="stroke: none" stroke-linejoin="miter" stroke-linecap="butt" stroke-miterlimit="4" stroke-width="0.7273" d="M7.273 0.364h17.455c3.816 0 6.909 3.093 6.909 6.909v17.455c0 3.816-3.093 6.909-6.909 6.909h-17.455c-3.816 0-6.909-3.093-6.909-6.909v-17.455c0-3.816 3.093-6.909 6.909-6.909z"></path>
    <path d="M24.093 12.663c-0.010-0.684-0.137-1.362-0.379-2.001-0.424-1.092-1.288-1.955-2.382-2.378-0.632-0.238-1.301-0.365-1.978-0.379-0.87-0.039-1.146-0.050-3.355-0.050s-2.492 0-3.356 0.050c-0.676 0.014-1.344 0.142-1.977 0.379-1.094 0.423-1.959 1.286-2.382 2.378-0.238 0.631-0.366 1.299-0.379 1.973-0.039 0.87-0.051 1.145-0.051 3.351s0 2.487 0.051 3.351c0.014 0.676 0.141 1.342 0.379 1.975 0.424 1.091 1.288 1.954 2.383 2.377 0.63 0.246 1.298 0.385 1.977 0.406 0.871 0.039 1.147 0.051 3.356 0.051s2.492 0 3.356-0.051c0.676-0.014 1.344-0.141 1.978-0.378 1.094-0.424 1.958-1.287 2.382-2.378 0.238-0.632 0.365-1.299 0.379-1.975 0.039-0.869 0.051-1.144 0.051-3.351-0.002-2.205-0.002-2.485-0.052-3.35zM15.994 20.156c-2.31 0-4.182-1.869-4.182-4.175s1.872-4.175 4.182-4.175c2.309 0 4.182 1.869 4.182 4.175s-1.874 4.175-4.182 4.175zM20.342 12.625c-0.54 0-0.975-0.435-0.975-0.974s0.435-0.974 0.975-0.974c0.538 0 0.974 0.435 0.974 0.974s-0.436 0.974-0.974 0.974z"></path>
    <path d="M15.995 18.53c1.407 0 2.548-1.141 2.548-2.548s-1.141-2.548-2.548-2.548c-1.407 0-2.548 1.141-2.548 2.548s1.141 2.548 2.548 2.548z"></path>
  </symbol>
  <symbol id="youtube" viewBox="0 0 32 32">
    <path fill="none" stroke="none" style="stroke: none" stroke-linejoin="miter" stroke-linecap="butt" stroke-miterlimit="4" stroke-width="0.7273" d="M7.273 0.364h17.455c3.816 0 6.909 3.093 6.909 6.909v17.455c0 3.816-3.093 6.909-6.909 6.909h-17.455c-3.816 0-6.909-3.093-6.909-6.909v-17.455c0-3.816 3.093-6.909 6.909-6.909z"></path>
    <path d="M21.244 9.636c-0.866-0.051-2.647-0.102-5.345-0.102h-0.356c-2.596 0-4.327 0.051-5.193 0.153-1.171 0.102-1.986 0.407-2.444 0.815-0.407 0.356-0.713 1.018-0.814 1.884-0.051 0.56-0.102 1.731-0.102 3.513v0.255c0 1.68 0.051 2.851 0.153 3.411 0.153 0.815 0.407 1.425 0.916 1.782 0.509 0.407 1.375 0.662 2.596 0.764 0.865 0.051 2.647 0.102 5.345 0.102h0.356c2.596 0 4.327-0.051 5.193-0.153 1.171-0.102 1.985-0.407 2.444-0.815 0.407-0.356 0.713-1.018 0.814-1.884 0.051-0.56 0.102-1.731 0.102-3.513v-0.255c0-1.68-0.051-2.851-0.153-3.411-0.153-0.815-0.407-1.425-0.916-1.782-0.509-0.407-1.375-0.662-2.596-0.764zM19.258 15.898l-5.6 3.36v-6.72l5.6 3.36z"></path>
  </symbol>
  <symbol id="men" viewBox="0 0 32 32">
    <path d="M29.647 9.451c-0.419-0.501-1.166-0.567-1.667-0.149l-3.282 2.757-1.509-3.739c-0.054-0.14-0.135-0.258-0.229-0.362-0.308-0.686-0.844-1.275-1.582-1.617-0.32-0.146-0.652-0.224-0.982-0.262-0.073-0.038-0.139-0.088-0.222-0.114l-5.775-1.61c-0.324-0.088-0.65-0.031-0.917 0.125-0.317 0.107-0.589 0.338-0.719 0.672l-2.175 5.592c-0.236 0.608 0.066 1.294 0.676 1.534 0.607 0.236 1.294-0.068 1.532-0.678l1.837-4.722 2.63 0.731c-0.064 0.104-0.133 0.201-0.185 0.312l-3.372 7.309c-0.049 0.107-0.075 0.217-0.109 0.328l-4.098 6.871-6.859 2.294c-0.776 0.58-0.941 1.674-0.367 2.45 0.577 0.778 1.674 0.943 2.448 0.369l7.018-2.417c0.215-0.156 0.371-0.36 0.489-0.58 0.088-0.094 0.189-0.168 0.256-0.284l2.443-4.096 4.337 3.696-4.641 5.23c-0.639 0.721-0.575 1.832 0.149 2.469 0.723 0.643 1.83 0.575 2.473-0.149l5.791-6.524c0.18-0.201 0.288-0.433 0.36-0.676 0.043-0.132 0.043-0.269 0.054-0.406 0-0.069 0.026-0.132 0.021-0.196-0.016-0.478-0.21-0.943-0.601-1.274l-3.991-3.403c0.288-0.274 0.532-0.6 0.709-0.983l2.585-5.599 0.828 2.206c0.035 0.196 0.1 0.388 0.239 0.549 0.125 0.149 0.284 0.248 0.454 0.317 0.017 0.009 0.038 0.010 0.059 0.016 0.107 0.038 0.216 0.075 0.329 0.080 0.133 0.012 0.269-0.005 0.405-0.043 0.004-0.002 0.005-0.002 0.005-0.002 0.036-0.009 0.073-0.002 0.109-0.017 0.192-0.073 0.34-0.196 0.466-0.34l4.71-3.998c0.501-0.421 0.289-1.166-0.132-1.667z"></path>
    <path d="M23.69 6.602c1.823 0 3.301-1.478 3.301-3.301s-1.478-3.301-3.301-3.301c-1.823 0-3.301 1.478-3.301 3.301s1.478 3.301 3.301 3.301z"></path>
  </symbol>
  <symbol id="dumbbell" viewBox="0 0 32 32">
    <path d="M7.36 9.143h-1.92c-0.532 0-0.96 0.459-0.96 1.029v4.457h-0.96c-0.176 0-0.32 0.154-0.32 0.343v2.057c0 0.188 0.144 0.343 0.32 0.343h0.96v4.457c0 0.57 0.428 1.028 0.96 1.028h1.92c0.532 0 0.96-0.459 0.96-1.028v-11.657c0-0.57-0.428-1.029-0.96-1.029zM28.48 14.629h-0.96v-4.457c0-0.57-0.428-1.029-0.96-1.029h-1.92c-0.532 0-0.96 0.459-0.96 1.029v11.657c0 0.57 0.428 1.028 0.96 1.028h1.92c0.532 0 0.96-0.459 0.96-1.028v-4.457h0.96c0.176 0 0.32-0.154 0.32-0.343v-2.057c0-0.189-0.144-0.343-0.32-0.343zM21.44 6.4h-1.92c-0.532 0-0.96 0.459-0.96 1.029v7.2h-5.12v-7.2c0-0.57-0.428-1.029-0.96-1.029h-1.92c-0.532 0-0.96 0.459-0.96 1.029v17.143c0 0.57 0.428 1.029 0.96 1.029h1.92c0.532 0 0.96-0.459 0.96-1.029v-7.2h5.12v7.2c0 0.57 0.428 1.029 0.96 1.029h1.92c0.532 0 0.96-0.459 0.96-1.029v-17.143c0-0.57-0.428-1.029-0.96-1.029z"></path>
  </symbol>
  <symbol id="stroke" viewBox="0 0 32 32">
    <path d="M14.254 13.505l0.363 0.372-4.466-12.797 5.321 12.466 0.018-0.52 0.441-13.027 0.441 13.026 0.018 0.52 5.321-12.466-4.466 12.797 9.465-9.702-8.787 10.32 12.331-5.628-11.922 6.449 13.531-0.793-13.446 1.707 12.904 4.148-13.155-3.266 10.534 8.53-11.087-7.798 6.741 11.759-7.521-11.276 2.038 13.4-2.94-13.232-2.94 13.232 2.038-13.4-7.521 11.276 6.741-11.759-11.087 7.798 10.534-8.53-13.155 3.266 12.904-4.148-13.446-1.707 13.531 0.793-11.922-6.449 12.331 5.628-8.787-10.32 9.102 9.33zM15.185 14.071l-0.646 0.4-0.458 0.607-0.208 0.731 0.070 0.757 0.339 0.68 0.562 0.512 0.709 0.275h0.76l0.709-0.275 0.562-0.512 0.339-0.68 0.070-0.757-0.208-0.731-0.458-0.607-0.646-0.4-0.747-0.14-0.747 0.14z"></path>
  </symbol>
  <symbol id="inverted-commas" viewBox="0 0 32 32">
    <path fill="#f4f4f4" style="fill: var(--color3, #f4f4f4)" d="M8.201 17.469c1.546-0.613 2.785-0.452 3.719 0.481s1.21 2.421 0.831 4.463c-0.292 1.517-0.933 2.683-1.925 3.5-0.963 0.787-2.085 1.181-3.369 1.181-1.75 0-2.96-0.671-3.631-2.013-0.671-1.371-0.802-3.208-0.394-5.512 0.233-1.254 0.613-2.523 1.137-3.806s1.225-2.596 2.1-3.938c0.875-1.342 2.013-2.508 3.413-3.5s2.946-1.633 4.637-1.925l-0.437 4.638c-1.429 0.292-2.698 1.035-3.806 2.231-1.108 1.167-1.867 2.567-2.275 4.2zM21.37 17.469c1.546-0.613 2.785-0.452 3.719 0.481s1.21 2.421 0.831 4.463c-0.292 1.517-0.933 2.683-1.925 3.5-0.963 0.787-2.085 1.181-3.369 1.181-1.75 0-2.96-0.671-3.631-2.013-0.671-1.371-0.802-3.208-0.394-5.512 0.233-1.254 0.613-2.523 1.137-3.806s1.225-2.596 2.1-3.938c0.875-1.342 2.013-2.508 3.413-3.5s2.946-1.633 4.637-1.925l-0.437 4.638c-1.429 0.292-2.698 1.035-3.806 2.231-1.108 1.167-1.867 2.567-2.275 4.2z"></path>
  </symbol>
  <symbol id="stars" viewBox="0 0 199 32">
    <path fill="#f4f4f4" style="fill: var(--color3, #f4f4f4)" d="M5.552 21.525c-0.992 0-1.851-0.24-2.576-0.72-0.715-0.491-1.264-1.168-1.648-2.032-0.384-0.875-0.576-1.888-0.576-3.040s0.192-2.16 0.576-3.024c0.384-0.875 0.933-1.552 1.648-2.032 0.725-0.491 1.584-0.736 2.576-0.736s1.845 0.245 2.56 0.736c0.715 0.48 1.264 1.157 1.648 2.032 0.384 0.864 0.576 1.872 0.576 3.024s-0.192 2.165-0.576 3.040c-0.384 0.864-0.933 1.541-1.648 2.032-0.715 0.48-1.568 0.72-2.56 0.72zM5.552 20.341c0.651 0 1.232-0.181 1.744-0.544 0.523-0.373 0.928-0.901 1.216-1.584 0.299-0.693 0.448-1.52 0.448-2.48s-0.149-1.781-0.448-2.464c-0.288-0.683-0.693-1.205-1.216-1.568-0.512-0.373-1.093-0.56-1.744-0.56-0.661 0-1.248 0.187-1.76 0.56-0.512 0.363-0.917 0.885-1.216 1.568s-0.448 1.504-0.448 2.464c0 0.96 0.149 1.787 0.448 2.48 0.299 0.683 0.704 1.211 1.216 1.584 0.512 0.363 1.099 0.544 1.76 0.544zM12.021 21.413c-0.267 0-0.491-0.085-0.672-0.256-0.171-0.181-0.256-0.4-0.256-0.656s0.085-0.469 0.256-0.64c0.181-0.181 0.405-0.272 0.672-0.272 0.256 0 0.469 0.091 0.64 0.272 0.181 0.171 0.272 0.384 0.272 0.64s-0.091 0.475-0.272 0.656c-0.171 0.171-0.384 0.256-0.64 0.256zM18.489 21.525c-0.992 0-1.851-0.24-2.576-0.72-0.715-0.491-1.264-1.168-1.648-2.032-0.384-0.875-0.576-1.888-0.576-3.040s0.192-2.16 0.576-3.024c0.384-0.875 0.933-1.552 1.648-2.032 0.725-0.491 1.584-0.736 2.576-0.736s1.845 0.245 2.56 0.736c0.715 0.48 1.264 1.157 1.648 2.032 0.384 0.864 0.576 1.872 0.576 3.024s-0.192 2.165-0.576 3.040c-0.384 0.864-0.933 1.541-1.648 2.032-0.715 0.48-1.568 0.72-2.56 0.72zM18.489 20.341c0.651 0 1.232-0.181 1.744-0.544 0.523-0.373 0.928-0.901 1.216-1.584 0.299-0.693 0.448-1.52 0.448-2.48s-0.149-1.781-0.448-2.464c-0.288-0.683-0.693-1.205-1.216-1.568-0.512-0.373-1.093-0.56-1.744-0.56-0.661 0-1.248 0.187-1.76 0.56-0.512 0.363-0.917 0.885-1.216 1.568s-0.448 1.504-0.448 2.464c0 0.96 0.149 1.787 0.448 2.48 0.299 0.683 0.704 1.211 1.216 1.584 0.512 0.363 1.099 0.544 1.76 0.544z"></path>
    <path fill="#f4f4f4" style="fill: var(--color3, #f4f4f4)" opacity="0.2" d="M42.732 3.903c0.399-1.228 2.137-1.228 2.536 0l2.025 6.232c0.178 0.549 0.69 0.921 1.268 0.921h6.552c1.292 0 1.829 1.653 0.784 2.412l-5.301 3.851c-0.467 0.339-0.663 0.941-0.484 1.491l2.025 6.232c0.399 1.228-1.007 2.25-2.052 1.491l-5.301-3.851c-0.467-0.339-1.1-0.339-1.567 0l-5.301 3.851c-1.045 0.759-2.451-0.262-2.052-1.491l2.025-6.232c0.179-0.549-0.017-1.151-0.484-1.491l-5.301-3.851c-1.045-0.759-0.508-2.412 0.784-2.412h6.552c0.578 0 1.090-0.372 1.268-0.921l2.025-6.232z"></path>
    <path fill="#f4f4f4" style="fill: var(--color3, #f4f4f4)" opacity="0.2" d="M77.399 3.903c0.399-1.228 2.137-1.228 2.536 0l2.025 6.232c0.178 0.549 0.69 0.921 1.268 0.921h6.552c1.292 0 1.829 1.653 0.784 2.412l-5.301 3.851c-0.467 0.339-0.663 0.941-0.484 1.491l2.025 6.232c0.399 1.228-1.007 2.25-2.052 1.491l-5.301-3.851c-0.467-0.339-1.1-0.339-1.567 0l-5.301 3.851c-1.045 0.759-2.451-0.262-2.052-1.491l2.025-6.232c0.179-0.549-0.017-1.151-0.484-1.491l-5.301-3.851c-1.045-0.759-0.508-2.412 0.784-2.412h6.552c0.578 0 1.090-0.372 1.268-0.921l2.025-6.232z"></path>
    <path fill="#f4f4f4" style="fill: var(--color3, #f4f4f4)" opacity="0.2" d="M112.065 3.903c0.399-1.228 2.137-1.228 2.536 0l2.025 6.232c0.178 0.549 0.69 0.921 1.268 0.921h6.552c1.292 0 1.829 1.653 0.784 2.412l-5.301 3.851c-0.467 0.339-0.663 0.941-0.484 1.491l2.025 6.232c0.399 1.228-1.007 2.25-2.052 1.491l-5.301-3.851c-0.467-0.339-1.1-0.339-1.567 0l-5.301 3.851c-1.045 0.759-2.451-0.262-2.052-1.491l2.025-6.232c0.179-0.549-0.017-1.151-0.484-1.491l-5.301-3.851c-1.045-0.759-0.508-2.412 0.784-2.412h6.552c0.578 0 1.090-0.372 1.268-0.921l2.025-6.232z"></path>
    <path fill="#f4f4f4" style="fill: var(--color3, #f4f4f4)" opacity="0.2" d="M146.732 3.903c0.399-1.228 2.137-1.228 2.536 0l2.025 6.232c0.179 0.549 0.689 0.921 1.268 0.921h6.552c1.292 0 1.828 1.653 0.784 2.412l-5.301 3.851c-0.467 0.339-0.663 0.941-0.484 1.491l2.024 6.232c0.4 1.228-1.007 2.25-2.051 1.491l-5.301-3.851c-0.468-0.339-1.1-0.339-1.568 0l-5.301 3.851c-1.044 0.759-2.451-0.262-2.051-1.491l2.024-6.232c0.179-0.549-0.017-1.151-0.484-1.491l-5.301-3.851c-1.044-0.759-0.508-2.412 0.784-2.412h6.552c0.579 0 1.089-0.372 1.268-0.921l2.025-6.232z"></path>
    <path fill="#f4f4f4" style="fill: var(--color3, #f4f4f4)" opacity="0.2" d="M181.399 3.903c0.399-1.228 2.137-1.228 2.536 0l2.025 6.232c0.179 0.549 0.689 0.921 1.268 0.921h6.552c1.292 0 1.828 1.653 0.784 2.412l-5.301 3.851c-0.467 0.339-0.663 0.941-0.484 1.491l2.024 6.232c0.4 1.228-1.007 2.25-2.051 1.491l-5.301-3.851c-0.468-0.339-1.1-0.339-1.568 0l-5.301 3.851c-1.044 0.759-2.451-0.262-2.051-1.491l2.024-6.232c0.179-0.549-0.017-1.151-0.484-1.491l-5.301-3.851c-1.044-0.759-0.508-2.412 0.784-2.412h6.552c0.579 0 1.089-0.372 1.268-0.921l2.025-6.232z"></path>
  </symbol>
  <symbol id="block" viewBox="0 0 101 32">
    <path fill="none" stroke="#242424" style="stroke: var(--color1, #242424)" stroke-linejoin="miter" stroke-linecap="butt" stroke-miterlimit="4" stroke-width="1" d="M16 0.5c8.56 0 15.5 6.94 15.5 15.5s-6.94 15.5-15.5 15.5c-8.56 0-15.5-6.94-15.5-15.5s6.94-15.5 15.5-15.5z"></path>
    <path fill="#242424" style="fill: var(--color1, #242424)" d="M15.432 24v-14.544l-2.712 0.6v-1.392l3.384-1.464h1.368v16.8h-2.040z"></path>
    <path fill="#d5d5d5" style="fill: var(--color2, #d5d5d5)" d="M41.512 24v-1.416c1.136-0.896 2.208-1.8 3.216-2.712 1.024-0.912 1.928-1.816 2.712-2.712 0.8-0.912 1.424-1.8 1.872-2.664 0.464-0.864 0.696-1.696 0.696-2.496 0-0.592-0.104-1.136-0.312-1.632-0.192-0.512-0.512-0.928-0.96-1.248s-1.056-0.48-1.824-0.48c-0.736 0-1.352 0.168-1.848 0.504-0.496 0.32-0.872 0.752-1.128 1.296-0.24 0.528-0.36 1.112-0.36 1.752h-1.944c0.016-1.104 0.248-2.048 0.696-2.832 0.464-0.8 1.096-1.408 1.896-1.824s1.704-0.624 2.712-0.624c0.992 0 1.872 0.192 2.64 0.576 0.768 0.368 1.368 0.92 1.8 1.656s0.648 1.664 0.648 2.784c0 0.784-0.16 1.568-0.48 2.352s-0.752 1.552-1.296 2.304c-0.544 0.736-1.144 1.448-1.8 2.136s-1.328 1.336-2.016 1.944c-0.688 0.608-1.336 1.16-1.944 1.656h8.112v1.68h-11.088z"></path>
    <path fill="#d5d5d5" style="fill: var(--color2, #d5d5d5)" d="M69.008 24.288c-1.072 0-2.040-0.192-2.904-0.576-0.864-0.4-1.56-0.992-2.088-1.776-0.512-0.784-0.784-1.76-0.816-2.928h2.040c0.016 0.96 0.352 1.792 1.008 2.496 0.656 0.688 1.576 1.032 2.76 1.032s2.072-0.328 2.664-0.984c0.608-0.656 0.912-1.448 0.912-2.376 0-0.784-0.192-1.424-0.576-1.92-0.368-0.496-0.872-0.864-1.512-1.104-0.624-0.24-1.312-0.36-2.064-0.36h-1.248v-1.704h1.248c1.088 0 1.936-0.248 2.544-0.744 0.624-0.496 0.936-1.192 0.936-2.088 0-0.752-0.248-1.368-0.744-1.848-0.48-0.496-1.2-0.744-2.16-0.744-0.928 0-1.672 0.28-2.232 0.84-0.56 0.544-0.872 1.232-0.936 2.064h-2.040c0.048-0.912 0.288-1.72 0.72-2.424 0.448-0.704 1.056-1.248 1.824-1.632 0.768-0.4 1.656-0.6 2.664-0.6 1.088 0 1.992 0.192 2.712 0.576 0.736 0.384 1.288 0.896 1.656 1.536 0.384 0.64 0.576 1.344 0.576 2.112 0 0.848-0.232 1.624-0.696 2.328-0.464 0.688-1.16 1.152-2.088 1.392 0.992 0.208 1.816 0.68 2.472 1.416s0.984 1.704 0.984 2.904c0 0.928-0.216 1.784-0.648 2.568-0.416 0.768-1.040 1.384-1.872 1.848s-1.864 0.696-3.096 0.696z"></path>
    <path fill="#d5d5d5" style="fill: var(--color2, #d5d5d5)" d="M87.352 24.12c-0.4 0-0.736-0.128-1.008-0.384-0.256-0.272-0.384-0.6-0.384-0.984s0.128-0.704 0.384-0.96c0.272-0.272 0.608-0.408 1.008-0.408 0.384 0 0.704 0.136 0.96 0.408 0.272 0.256 0.408 0.576 0.408 0.96s-0.136 0.712-0.408 0.984c-0.256 0.256-0.576 0.384-0.96 0.384zM92.999 24.12c-0.4 0-0.736-0.128-1.008-0.384-0.256-0.272-0.384-0.6-0.384-0.984s0.128-0.704 0.384-0.96c0.272-0.272 0.608-0.408 1.008-0.408 0.384 0 0.704 0.136 0.96 0.408 0.272 0.256 0.408 0.576 0.408 0.96s-0.136 0.712-0.408 0.984c-0.256 0.256-0.576 0.384-0.96 0.384zM98.647 24.12c-0.4 0-0.736-0.128-1.008-0.384-0.256-0.272-0.384-0.6-0.384-0.984s0.128-0.704 0.384-0.96c0.272-0.272 0.608-0.408 1.008-0.408 0.384 0 0.704 0.136 0.96 0.408 0.272 0.256 0.408 0.576 0.408 0.96s-0.136 0.712-0.408 0.984c-0.256 0.256-0.576 0.384-0.96 0.384z"></path>
  </symbol>
  <symbol id="heart" viewBox="0 0 32 32">
    <path stroke-linejoin="round" stroke-linecap="round" stroke-miterlimit="4" stroke-width="2.4" d="M27.787 6.147c-0.681-0.681-1.49-1.222-2.38-1.591s-1.844-0.559-2.807-0.559c-0.963 0-1.917 0.19-2.807 0.559s-1.699 0.909-2.38 1.591l-1.413 1.413-1.413-1.413c-1.376-1.376-3.241-2.148-5.187-2.148s-3.811 0.773-5.187 2.148c-1.376 1.376-2.148 3.241-2.148 5.187s0.773 3.811 2.148 5.187l11.787 11.787 11.787-11.787c0.681-0.681 1.222-1.49 1.591-2.38s0.559-1.844 0.559-2.807c0-0.963-0.19-1.917-0.559-2.807s-0.909-1.699-1.591-2.38z"></path>
  </symbol>
  <symbol id="basket" viewBox="0 0 32 32">
    <path stroke-linejoin="round" stroke-linecap="round" stroke-miterlimit="4" stroke-width="2.4" d="M21.333 8v-1.067c0-1.493 0-2.24-0.291-2.811-0.256-0.502-0.664-0.91-1.165-1.165-0.57-0.291-1.317-0.291-2.811-0.291h-2.133c-1.493 0-2.24 0-2.811 0.291-0.502 0.256-0.91 0.664-1.165 1.165-0.291 0.57-0.291 1.317-0.291 2.811v1.067M13.333 15.333v6.667M18.667 15.333v6.667M4 8h24M25.333 8v14.933c0 2.24 0 3.36-0.436 4.216-0.383 0.753-0.995 1.364-1.748 1.748-0.856 0.436-1.976 0.436-4.216 0.436h-5.867c-2.24 0-3.36 0-4.216-0.436-0.753-0.384-1.365-0.995-1.748-1.748-0.436-0.856-0.436-1.976-0.436-4.216v-14.933"></path>
  </symbol>
  <symbol id="search" viewBox="0 0 32 32">
    <path stroke-linejoin="round" stroke-linecap="round" stroke-miterlimit="4" stroke-width="2.6667" d="M14.667 25.333c5.891 0 10.667-4.776 10.667-10.667s-4.776-10.667-10.667-10.667c-5.891 0-10.667 4.776-10.667 10.667s4.776 10.667 10.667 10.667z"></path>
    <path stroke-linejoin="round" stroke-linecap="round" stroke-miterlimit="4" stroke-width="2.6667" d="M28 28l-5.8-5.8"></path>
  </symbol>
  <symbol id="cross" viewBox="0 0 32 32">
    <path stroke-linejoin="round" stroke-linecap="round" stroke-miterlimit="4" stroke-width="2.6667" d="M22.667 9.333l-13.333 13.333M9.333 9.333l13.333 13.333"></path>
  </symbol>
  <symbol id="scroll-up" viewBox="0 0 31 32">
    <path fill="#f4f4f4" style="fill: var(--color3, #f4f4f4)" d="M16.413 7.652v17.019h-1.811v-17.019l-8.509 8.509-1.28-1.28 10.695-10.695 10.695 10.695-1.28 1.28-8.509-8.509z"></path>
  </symbol>
  <symbol id="burger" viewBox="0 0 32 32">
    <path stroke-linejoin="round" stroke-linecap="round" stroke-miterlimit="4" stroke-width="2" d="M28 13.333h-24"></path>
    <path stroke-linejoin="round" stroke-linecap="round" stroke-miterlimit="4" stroke-width="2" d="M28 8h-24"></path>
    <path stroke-linejoin="round" stroke-linecap="round" stroke-miterlimit="4" stroke-width="2" d="M28 18.667h-24"></path>
    <path stroke-linejoin="round" stroke-linecap="round" stroke-miterlimit="4" stroke-width="2" d="M28 24h-24"></path>
  </symbol>
  <symbol id="icon-your-energy" viewBox="0 0 132 24">
      <path
        d="M4.98 13.28l-4.98-8.28h2.98l3.34 5.74h0.040l3.34-5.74h2.98l-4.98 8.28v5.72h-2.72v-5.72zM12.67 16.7v-9.4l2.3-2.3h7.2l2.3 2.3v9.4l-2.3 2.3h-7.2l-2.3-2.3zM20.73 16.68l1.020-1.020v-7.32l-1.020-1.020h-4.32l-1.020 1.020v7.32l1.020 1.020h4.32zM26.374 16.6v-11.6h2.72v10.66l1.020 1.020h3.92l1.020-1.020v-10.66h2.72v11.6l-2.4 2.4h-6.6l-2.4-2.4zM50.878 14.36v4.64h-2.72v-4.020l-1.2-1.34h-4.36v5.36h-2.72v-14h8.78l2.14 2.16v4.24l-1.36 1.38 1.44 1.58zM42.598 11.4h4.82l0.7-0.7v-2.72l-0.7-0.7h-4.82v4.12zM57.823 5h10.12v2.3h-7.4v3.54h6.82v2.26h-6.82v3.6h7.4v2.3h-10.12v-14zM69.452 5h2.44l6.24 9.5h0.040v-9.5h2.62v14h-2.44l-6.24-9.48h-0.040v9.48h-2.62v-14zM82.898 5h10.12v2.3h-7.4v3.54h6.82v2.26h-6.82v3.6h7.4v2.3h-10.12v-14zM105.527 14.36v4.64h-2.72v-4.020l-1.2-1.34h-4.36v5.36h-2.72v-14h8.78l2.14 2.16v4.24l-1.36 1.38 1.44 1.58zM97.247 11.4h4.82l0.7-0.7v-2.72l-0.7-0.7h-4.82v4.12zM107.323 16.7v-9.4l2.3-2.3h6.96l2.26 2.26v2.14h-2.72v-1.14l-0.94-0.94h-4.12l-1.020 1.020v7.32l1.020 1.020h4.16l0.98-0.98v-2.18h-3v-2.32h5.64v5.5l-2.3 2.3h-6.92l-2.3-2.3zM123.828 13.28l-4.98-8.28h2.98l3.34 5.74h0.040l3.34-5.74h2.98l-4.98 8.28v5.72h-2.72v-5.72z"></path>
  </symbol>
</defs>
</svg>